# xmcd
#
# Track frame offsets:
#        150
#        20419
#        38316
#        58872
#        78645
#        98739
#        117345
#        138393
#        159436
#        174541
#        189917
#        210505
#
# Disc length: 3047 seconds
#
# Revision: 1
# Processed by: cddbd v1.5.1PL2 Copyright (c) Steve Scherf et al.
# Submitted via: ExactAudioCopy v0.95b4
#
DISCID=940be50c
DTITLE=CENTINEX - HELLBRIGADE
DYEAR=2000
DGENRE=Death Metal
TTITLE0=Towards Devastation
TTITLE1=One With Eternity
TTITLE2=The Eyes Of The Dead
TTITLE3=Emperor Of Death
TTITLE4=Last Redemption
TTITLE5=Bloodconqueror
TTITLE6=Neverending Hell
TTITLE7=Nightbreeder
TTITLE8=Hellbrigade
TTITLE9=Apocalyptic Armageddon *
TTITLE10=Seeds of Evil *
TTITLE11=Everlasting Bloodshed
EXTD=YEAR: 2000 ID3G: 22
EXTT0=
EXTT1=
EXTT2=
EXTT3=
EXTT4=
EXTT5=
EXTT6=
EXTT7=
EXTT8=
EXTT9=
EXTT10=
EXTT11=
PLAYORDER=
